<svg width="1920" height="600" xmlns="http://www.w3.org/2000/svg">
  <defs>
    <linearGradient id="grad1" x1="0%" y1="0%" x2="100%" y2="100%">
      <stop offset="0%" style="stop-color:#0f172a;stop-opacity:1" />
      <stop offset="100%" style="stop-color:#1e3a8a;stop-opacity:1" />
    </linearGradient>
  </defs>
  <rect width="1920" height="600" fill="url(#grad1)" />
  <g fill="#ffffff" opacity="0.05">
    <path d="M0,300 Q480,100 960,300 T1920,300 L1920,600 L0,600 Z" />
    <path d="M0,400 Q480,200 960,400 T1920,400 L1920,600 L0,600 Z" />
  </g>
  <g fill="none" stroke="#ffffff" stroke-width="2" opacity="0.1">
    <circle cx="400" cy="150" r="80" />
    <circle cx="1200" cy="200" r="120" />
    <circle cx="1800" cy="300" r="70" />
    <circle cx="600" cy="400" r="100" />
    <circle cx="1500" cy="450" r="90" />
  </g>
  <g fill="#f59e0b" opacity="0.1">
    <circle cx="200" cy="200" r="40" />
    <circle cx="1000" cy="150" r="60" />
    <circle cx="1600" cy="250" r="35" />
    <circle cx="800" cy="350" r="50" />
    <circle cx="1400" cy="400" r="45" />
  </g>
</svg>