<svg width="1920" height="800" xmlns="http://www.w3.org/2000/svg">
  <defs>
    <linearGradient id="grad1" x1="0%" y1="0%" x2="100%" y2="100%">
      <stop offset="0%" style="stop-color:#1e3a8a;stop-opacity:1" />
      <stop offset="100%" style="stop-color:#0f172a;stop-opacity:1" />
    </linearGradient>
  </defs>
  <rect width="1920" height="800" fill="url(#grad1)" />
  <g fill="#ffffff" opacity="0.05">
    <path d="M1200,400 Q1400,200 1600,400 T2000,400 L2000,800 L1200,800 Z" />
    <path d="M0,500 Q200,300 400,500 T800,500 L800,800 L0,800 Z" />
    <path d="M800,600 Q1000,400 1200,600 T1600,600 L1600,800 L800,800 Z" />
  </g>
  <g fill="none" stroke="#ffffff" stroke-width="2" opacity="0.1">
    <circle cx="300" cy="200" r="100" />
    <circle cx="1600" cy="300" r="150" />
    <circle cx="1000" cy="500" r="80" />
    <circle cx="500" cy="600" r="120" />
    <circle cx="1800" cy="600" r="90" />
  </g>
  <g fill="#f59e0b" opacity="0.1">
    <circle cx="200" cy="300" r="50" />
    <circle cx="1700" cy="200" r="70" />
    <circle cx="900" cy="400" r="40" />
    <circle cx="600" cy="500" r="60" />
    <circle cx="1500" cy="500" r="45" />
  </g>
</svg>